<mxfile host="app.diagrams.net" modified="2023-06-09T16:45:52.209Z" agent="Mozilla/5.0 (Macintosh; Intel Mac OS X 10_15_7) AppleWebKit/537.36 (KHTML, like Gecko) Chrome/113.0.0.0 Safari/537.36" etag="IFvspUa4hMSWMZLOYX6r" version="21.3.8" type="github">
  <diagram name="Page-1" id="VSmt0oDViDDK8gXMvHNL">
    <mxGraphModel dx="1163" dy="679" grid="1" gridSize="10" guides="1" tooltips="1" connect="1" arrows="1" fold="1" page="1" pageScale="1" pageWidth="850" pageHeight="1100" math="0" shadow="0">
      <root>
        <mxCell id="0" />
        <mxCell id="1" parent="0" />
        <mxCell id="PPoa7hDfSjwcqPJ_33QI-34" style="edgeStyle=orthogonalEdgeStyle;rounded=0;orthogonalLoop=1;jettySize=auto;html=1;entryX=0.383;entryY=-0.05;entryDx=0;entryDy=0;entryPerimeter=0;" parent="1" source="PPoa7hDfSjwcqPJ_33QI-1" target="PPoa7hDfSjwcqPJ_33QI-33" edge="1">
          <mxGeometry relative="1" as="geometry" />
        </mxCell>
        <mxCell id="PPoa7hDfSjwcqPJ_33QI-1" value="Home&amp;nbsp;&lt;br&gt;del diario" style="rounded=0;whiteSpace=wrap;html=1;fontSize=28;" parent="1" vertex="1">
          <mxGeometry x="70" y="370" width="170" height="210" as="geometry" />
        </mxCell>
        <mxCell id="PPoa7hDfSjwcqPJ_33QI-42" style="edgeStyle=orthogonalEdgeStyle;rounded=0;orthogonalLoop=1;jettySize=auto;html=1;entryX=0.5;entryY=0;entryDx=0;entryDy=0;" parent="1" source="PPoa7hDfSjwcqPJ_33QI-3" target="PPoa7hDfSjwcqPJ_33QI-37" edge="1">
          <mxGeometry relative="1" as="geometry" />
        </mxCell>
        <mxCell id="PPoa7hDfSjwcqPJ_33QI-3" value="secci칩n interna para mostrar la noticia completa" style="rounded=0;whiteSpace=wrap;html=1;fontSize=28;" parent="1" vertex="1">
          <mxGeometry x="420" y="430" width="170" height="210" as="geometry" />
        </mxCell>
        <mxCell id="PPoa7hDfSjwcqPJ_33QI-4" value="solo se pueden ver con usuarios registrados" style="text;html=1;strokeColor=none;fillColor=none;align=center;verticalAlign=middle;whiteSpace=wrap;rounded=0;" parent="1" vertex="1">
          <mxGeometry x="450" y="680" width="160" height="30" as="geometry" />
        </mxCell>
        <mxCell id="PPoa7hDfSjwcqPJ_33QI-52" style="edgeStyle=orthogonalEdgeStyle;rounded=0;orthogonalLoop=1;jettySize=auto;html=1;entryX=1;entryY=0.5;entryDx=0;entryDy=0;" parent="1" source="PPoa7hDfSjwcqPJ_33QI-5" target="PPoa7hDfSjwcqPJ_33QI-51" edge="1">
          <mxGeometry relative="1" as="geometry" />
        </mxCell>
        <mxCell id="PPoa7hDfSjwcqPJ_33QI-5" value="administrador de noticias" style="rounded=0;whiteSpace=wrap;html=1;fontSize=28;" parent="1" vertex="1">
          <mxGeometry x="820" y="1230" width="220" height="210" as="geometry" />
        </mxCell>
        <mxCell id="PPoa7hDfSjwcqPJ_33QI-6" value="solo usuarios con privilio de administrador" style="text;html=1;strokeColor=none;fillColor=none;align=center;verticalAlign=middle;whiteSpace=wrap;rounded=0;" parent="1" vertex="1">
          <mxGeometry x="880" y="1510" width="160" height="30" as="geometry" />
        </mxCell>
        <mxCell id="PPoa7hDfSjwcqPJ_33QI-12" style="edgeStyle=orthogonalEdgeStyle;rounded=0;orthogonalLoop=1;jettySize=auto;html=1;entryX=0.605;entryY=-0.022;entryDx=0;entryDy=0;entryPerimeter=0;" parent="1" source="PPoa7hDfSjwcqPJ_33QI-8" target="PPoa7hDfSjwcqPJ_33QI-10" edge="1">
          <mxGeometry relative="1" as="geometry" />
        </mxCell>
        <mxCell id="PPoa7hDfSjwcqPJ_33QI-8" value="Inicio" style="ellipse;whiteSpace=wrap;html=1;fontSize=22;" parent="1" vertex="1">
          <mxGeometry x="1220" y="260" width="120" height="80" as="geometry" />
        </mxCell>
        <mxCell id="PPoa7hDfSjwcqPJ_33QI-9" value="Registro" style="text;html=1;strokeColor=none;fillColor=none;align=center;verticalAlign=middle;whiteSpace=wrap;rounded=0;" parent="1" vertex="1">
          <mxGeometry x="1275" y="210" width="60" height="30" as="geometry" />
        </mxCell>
        <mxCell id="PPoa7hDfSjwcqPJ_33QI-13" style="edgeStyle=orthogonalEdgeStyle;rounded=0;orthogonalLoop=1;jettySize=auto;html=1;entryX=0.55;entryY=-0.017;entryDx=0;entryDy=0;entryPerimeter=0;" parent="1" source="PPoa7hDfSjwcqPJ_33QI-10" target="PPoa7hDfSjwcqPJ_33QI-11" edge="1">
          <mxGeometry relative="1" as="geometry" />
        </mxCell>
        <mxCell id="PPoa7hDfSjwcqPJ_33QI-10" value="nombre&lt;br&gt;apelllido&lt;br&gt;email&lt;br&gt;contrase침a" style="shape=parallelogram;perimeter=parallelogramPerimeter;whiteSpace=wrap;html=1;fixedSize=1;" parent="1" vertex="1">
          <mxGeometry x="1190" y="390" width="200" height="90" as="geometry" />
        </mxCell>
        <mxCell id="PPoa7hDfSjwcqPJ_33QI-21" style="edgeStyle=orthogonalEdgeStyle;rounded=0;orthogonalLoop=1;jettySize=auto;html=1;entryX=0.583;entryY=0;entryDx=0;entryDy=0;entryPerimeter=0;" parent="1" source="PPoa7hDfSjwcqPJ_33QI-11" target="PPoa7hDfSjwcqPJ_33QI-20" edge="1">
          <mxGeometry relative="1" as="geometry" />
        </mxCell>
        <mxCell id="PPoa7hDfSjwcqPJ_33QI-11" value="guardar registro" style="rounded=0;whiteSpace=wrap;html=1;fontSize=22;" parent="1" vertex="1">
          <mxGeometry x="1190" y="560" width="180" height="60" as="geometry" />
        </mxCell>
        <mxCell id="PPoa7hDfSjwcqPJ_33QI-14" style="edgeStyle=orthogonalEdgeStyle;rounded=0;orthogonalLoop=1;jettySize=auto;html=1;entryX=0.605;entryY=-0.022;entryDx=0;entryDy=0;entryPerimeter=0;" parent="1" source="PPoa7hDfSjwcqPJ_33QI-15" target="PPoa7hDfSjwcqPJ_33QI-18" edge="1">
          <mxGeometry relative="1" as="geometry" />
        </mxCell>
        <mxCell id="PPoa7hDfSjwcqPJ_33QI-15" value="Inicio" style="ellipse;whiteSpace=wrap;html=1;fontSize=22;" parent="1" vertex="1">
          <mxGeometry x="1600" y="270" width="120" height="80" as="geometry" />
        </mxCell>
        <mxCell id="PPoa7hDfSjwcqPJ_33QI-16" value="login" style="text;html=1;strokeColor=none;fillColor=none;align=center;verticalAlign=middle;whiteSpace=wrap;rounded=0;" parent="1" vertex="1">
          <mxGeometry x="1625" y="210" width="60" height="30" as="geometry" />
        </mxCell>
        <mxCell id="PPoa7hDfSjwcqPJ_33QI-17" style="edgeStyle=orthogonalEdgeStyle;rounded=0;orthogonalLoop=1;jettySize=auto;html=1;entryX=0.55;entryY=-0.017;entryDx=0;entryDy=0;entryPerimeter=0;" parent="1" source="PPoa7hDfSjwcqPJ_33QI-18" edge="1">
          <mxGeometry relative="1" as="geometry">
            <mxPoint x="1639" y="558.98" as="targetPoint" />
          </mxGeometry>
        </mxCell>
        <mxCell id="PPoa7hDfSjwcqPJ_33QI-18" value="email&lt;br&gt;contrase침a" style="shape=parallelogram;perimeter=parallelogramPerimeter;whiteSpace=wrap;html=1;fixedSize=1;" parent="1" vertex="1">
          <mxGeometry x="1540" y="390" width="200" height="90" as="geometry" />
        </mxCell>
        <mxCell id="PPoa7hDfSjwcqPJ_33QI-20" value="fin" style="ellipse;whiteSpace=wrap;html=1;fontSize=22;" parent="1" vertex="1">
          <mxGeometry x="1210" y="670" width="120" height="80" as="geometry" />
        </mxCell>
        <mxCell id="PPoa7hDfSjwcqPJ_33QI-24" style="edgeStyle=orthogonalEdgeStyle;rounded=0;orthogonalLoop=1;jettySize=auto;html=1;entryX=0;entryY=0.5;entryDx=0;entryDy=0;" parent="1" source="PPoa7hDfSjwcqPJ_33QI-22" target="PPoa7hDfSjwcqPJ_33QI-23" edge="1">
          <mxGeometry relative="1" as="geometry">
            <Array as="points">
              <mxPoint x="1510" y="635" />
              <mxPoint x="1510" y="810" />
            </Array>
          </mxGeometry>
        </mxCell>
        <mxCell id="PPoa7hDfSjwcqPJ_33QI-28" style="edgeStyle=orthogonalEdgeStyle;rounded=0;orthogonalLoop=1;jettySize=auto;html=1;entryX=1;entryY=0.5;entryDx=0;entryDy=0;" parent="1" source="PPoa7hDfSjwcqPJ_33QI-22" target="PPoa7hDfSjwcqPJ_33QI-15" edge="1">
          <mxGeometry relative="1" as="geometry">
            <Array as="points">
              <mxPoint x="1970" y="635" />
              <mxPoint x="1970" y="310" />
            </Array>
          </mxGeometry>
        </mxCell>
        <mxCell id="PPoa7hDfSjwcqPJ_33QI-22" value="email y contrase침a validos?" style="rhombus;whiteSpace=wrap;html=1;" parent="1" vertex="1">
          <mxGeometry x="1555" y="560" width="170" height="150" as="geometry" />
        </mxCell>
        <mxCell id="PPoa7hDfSjwcqPJ_33QI-26" style="edgeStyle=orthogonalEdgeStyle;rounded=0;orthogonalLoop=1;jettySize=auto;html=1;entryX=0.5;entryY=0;entryDx=0;entryDy=0;" parent="1" source="PPoa7hDfSjwcqPJ_33QI-23" target="PPoa7hDfSjwcqPJ_33QI-25" edge="1">
          <mxGeometry relative="1" as="geometry" />
        </mxCell>
        <mxCell id="PPoa7hDfSjwcqPJ_33QI-44" style="edgeStyle=orthogonalEdgeStyle;rounded=0;orthogonalLoop=1;jettySize=auto;html=1;entryX=1;entryY=0.5;entryDx=0;entryDy=0;" parent="1" source="PPoa7hDfSjwcqPJ_33QI-23" target="PPoa7hDfSjwcqPJ_33QI-15" edge="1">
          <mxGeometry relative="1" as="geometry">
            <Array as="points">
              <mxPoint x="1910" y="810" />
              <mxPoint x="1910" y="310" />
            </Array>
          </mxGeometry>
        </mxCell>
        <mxCell id="PPoa7hDfSjwcqPJ_33QI-23" value="usuario logueado" style="rounded=0;whiteSpace=wrap;html=1;" parent="1" vertex="1">
          <mxGeometry x="1590" y="780" width="120" height="60" as="geometry" />
        </mxCell>
        <mxCell id="PPoa7hDfSjwcqPJ_33QI-25" value="fin" style="ellipse;whiteSpace=wrap;html=1;fontSize=22;" parent="1" vertex="1">
          <mxGeometry x="1590" y="920" width="120" height="80" as="geometry" />
        </mxCell>
        <mxCell id="PPoa7hDfSjwcqPJ_33QI-27" value="si" style="text;html=1;strokeColor=none;fillColor=none;align=center;verticalAlign=middle;whiteSpace=wrap;rounded=0;" parent="1" vertex="1">
          <mxGeometry x="1490" y="600" width="60" height="30" as="geometry" />
        </mxCell>
        <mxCell id="PPoa7hDfSjwcqPJ_33QI-29" value="no" style="text;html=1;strokeColor=none;fillColor=none;align=center;verticalAlign=middle;whiteSpace=wrap;rounded=0;" parent="1" vertex="1">
          <mxGeometry x="1750" y="600" width="60" height="30" as="geometry" />
        </mxCell>
        <mxCell id="PPoa7hDfSjwcqPJ_33QI-35" style="edgeStyle=orthogonalEdgeStyle;rounded=0;orthogonalLoop=1;jettySize=auto;html=1;entryX=0.5;entryY=0;entryDx=0;entryDy=0;" parent="1" source="PPoa7hDfSjwcqPJ_33QI-32" target="PPoa7hDfSjwcqPJ_33QI-1" edge="1">
          <mxGeometry relative="1" as="geometry" />
        </mxCell>
        <mxCell id="PPoa7hDfSjwcqPJ_33QI-32" value="Inicio" style="ellipse;whiteSpace=wrap;html=1;fontSize=22;" parent="1" vertex="1">
          <mxGeometry x="95" y="200" width="120" height="80" as="geometry" />
        </mxCell>
        <mxCell id="PPoa7hDfSjwcqPJ_33QI-33" value="fin" style="ellipse;whiteSpace=wrap;html=1;fontSize=22;" parent="1" vertex="1">
          <mxGeometry x="110" y="660" width="120" height="80" as="geometry" />
        </mxCell>
        <mxCell id="PPoa7hDfSjwcqPJ_33QI-40" style="edgeStyle=orthogonalEdgeStyle;rounded=0;orthogonalLoop=1;jettySize=auto;html=1;" parent="1" source="PPoa7hDfSjwcqPJ_33QI-36" target="PPoa7hDfSjwcqPJ_33QI-39" edge="1">
          <mxGeometry relative="1" as="geometry" />
        </mxCell>
        <mxCell id="PPoa7hDfSjwcqPJ_33QI-36" value="Inicio" style="ellipse;whiteSpace=wrap;html=1;fontSize=22;" parent="1" vertex="1">
          <mxGeometry x="435" y="200" width="120" height="80" as="geometry" />
        </mxCell>
        <mxCell id="PPoa7hDfSjwcqPJ_33QI-37" value="fin" style="ellipse;whiteSpace=wrap;html=1;fontSize=22;" parent="1" vertex="1">
          <mxGeometry x="425" y="810" width="120" height="80" as="geometry" />
        </mxCell>
        <mxCell id="PPoa7hDfSjwcqPJ_33QI-41" style="edgeStyle=orthogonalEdgeStyle;rounded=0;orthogonalLoop=1;jettySize=auto;html=1;" parent="1" source="PPoa7hDfSjwcqPJ_33QI-39" edge="1">
          <mxGeometry relative="1" as="geometry">
            <mxPoint x="500" y="420" as="targetPoint" />
          </mxGeometry>
        </mxCell>
        <mxCell id="PPoa7hDfSjwcqPJ_33QI-43" style="edgeStyle=orthogonalEdgeStyle;rounded=0;orthogonalLoop=1;jettySize=auto;html=1;entryX=0;entryY=0.5;entryDx=0;entryDy=0;" parent="1" source="PPoa7hDfSjwcqPJ_33QI-39" target="PPoa7hDfSjwcqPJ_33QI-23" edge="1">
          <mxGeometry relative="1" as="geometry">
            <Array as="points">
              <mxPoint x="720" y="340" />
              <mxPoint x="720" y="810" />
            </Array>
          </mxGeometry>
        </mxCell>
        <mxCell id="PPoa7hDfSjwcqPJ_33QI-39" value="usuario loguead?" style="rhombus;whiteSpace=wrap;html=1;" parent="1" vertex="1">
          <mxGeometry x="460" y="300" width="80" height="80" as="geometry" />
        </mxCell>
        <mxCell id="PPoa7hDfSjwcqPJ_33QI-48" style="edgeStyle=orthogonalEdgeStyle;rounded=0;orthogonalLoop=1;jettySize=auto;html=1;" parent="1" source="PPoa7hDfSjwcqPJ_33QI-45" target="PPoa7hDfSjwcqPJ_33QI-47" edge="1">
          <mxGeometry relative="1" as="geometry" />
        </mxCell>
        <mxCell id="PPoa7hDfSjwcqPJ_33QI-45" value="Inicio" style="ellipse;whiteSpace=wrap;html=1;fontSize=22;" parent="1" vertex="1">
          <mxGeometry x="850" y="860" width="120" height="80" as="geometry" />
        </mxCell>
        <mxCell id="PPoa7hDfSjwcqPJ_33QI-49" style="edgeStyle=orthogonalEdgeStyle;rounded=0;orthogonalLoop=1;jettySize=auto;html=1;entryX=0;entryY=0.5;entryDx=0;entryDy=0;" parent="1" source="PPoa7hDfSjwcqPJ_33QI-47" target="PPoa7hDfSjwcqPJ_33QI-23" edge="1">
          <mxGeometry relative="1" as="geometry" />
        </mxCell>
        <mxCell id="PPoa7hDfSjwcqPJ_33QI-50" style="edgeStyle=orthogonalEdgeStyle;rounded=0;orthogonalLoop=1;jettySize=auto;html=1;" parent="1" source="PPoa7hDfSjwcqPJ_33QI-47" target="PPoa7hDfSjwcqPJ_33QI-5" edge="1">
          <mxGeometry relative="1" as="geometry" />
        </mxCell>
        <mxCell id="PPoa7hDfSjwcqPJ_33QI-47" value="usuario loguead? y &lt;br&gt;usuario administrador?" style="rhombus;whiteSpace=wrap;html=1;" parent="1" vertex="1">
          <mxGeometry x="800" y="1030" width="230" height="160" as="geometry" />
        </mxCell>
        <mxCell id="PPoa7hDfSjwcqPJ_33QI-53" style="edgeStyle=orthogonalEdgeStyle;rounded=0;orthogonalLoop=1;jettySize=auto;html=1;entryX=0.994;entryY=0.61;entryDx=0;entryDy=0;entryPerimeter=0;" parent="1" source="PPoa7hDfSjwcqPJ_33QI-51" target="PPoa7hDfSjwcqPJ_33QI-1" edge="1">
          <mxGeometry relative="1" as="geometry" />
        </mxCell>
        <mxCell id="PPoa7hDfSjwcqPJ_33QI-51" value="" style="shape=datastore;whiteSpace=wrap;html=1;" parent="1" vertex="1">
          <mxGeometry x="340" y="1140" width="160" height="210" as="geometry" />
        </mxCell>
        <mxCell id="PPoa7hDfSjwcqPJ_33QI-54" value="nombre&lt;br&gt;apellido&lt;br&gt;email&lt;br&gt;contrase침a&lt;br&gt;perfil = regular" style="shape=cylinder3;whiteSpace=wrap;html=1;boundedLbl=1;backgroundOutline=1;size=15;" parent="1" vertex="1">
          <mxGeometry x="1070" y="535" width="120" height="110" as="geometry" />
        </mxCell>
        <mxCell id="PPoa7hDfSjwcqPJ_33QI-55" value="sego" style="rounded=0;whiteSpace=wrap;html=1;" parent="1" vertex="1">
          <mxGeometry x="1625" y="1170" width="120" height="60" as="geometry" />
        </mxCell>
        <mxCell id="PPoa7hDfSjwcqPJ_33QI-56" value="dani@nada.com" style="rounded=0;whiteSpace=wrap;html=1;" parent="1" vertex="1">
          <mxGeometry x="1740" y="1170" width="120" height="60" as="geometry" />
        </mxCell>
        <mxCell id="PPoa7hDfSjwcqPJ_33QI-57" value="123456" style="rounded=0;whiteSpace=wrap;html=1;" parent="1" vertex="1">
          <mxGeometry x="1860" y="1170" width="120" height="60" as="geometry" />
        </mxCell>
        <mxCell id="PPoa7hDfSjwcqPJ_33QI-58" value="regular" style="rounded=0;whiteSpace=wrap;html=1;" parent="1" vertex="1">
          <mxGeometry x="1980" y="1170" width="120" height="60" as="geometry" />
        </mxCell>
        <mxCell id="PPoa7hDfSjwcqPJ_33QI-59" value="dani" style="rounded=0;whiteSpace=wrap;html=1;" parent="1" vertex="1">
          <mxGeometry x="1505" y="1170" width="120" height="60" as="geometry" />
        </mxCell>
        <mxCell id="PPoa7hDfSjwcqPJ_33QI-60" value="apellido" style="rounded=0;whiteSpace=wrap;html=1;" parent="1" vertex="1">
          <mxGeometry x="1622.5" y="1230" width="120" height="60" as="geometry" />
        </mxCell>
        <mxCell id="PPoa7hDfSjwcqPJ_33QI-61" value="dani@nada.com" style="rounded=0;whiteSpace=wrap;html=1;" parent="1" vertex="1">
          <mxGeometry x="1737.5" y="1230" width="120" height="60" as="geometry" />
        </mxCell>
        <mxCell id="PPoa7hDfSjwcqPJ_33QI-62" value="123456" style="rounded=0;whiteSpace=wrap;html=1;" parent="1" vertex="1">
          <mxGeometry x="1857.5" y="1230" width="120" height="60" as="geometry" />
        </mxCell>
        <mxCell id="PPoa7hDfSjwcqPJ_33QI-63" value="regular" style="rounded=0;whiteSpace=wrap;html=1;" parent="1" vertex="1">
          <mxGeometry x="1977.5" y="1230" width="120" height="60" as="geometry" />
        </mxCell>
        <mxCell id="PPoa7hDfSjwcqPJ_33QI-64" value="2" style="rounded=0;whiteSpace=wrap;html=1;" parent="1" vertex="1">
          <mxGeometry x="1502.5" y="1230" width="120" height="60" as="geometry" />
        </mxCell>
        <mxCell id="PPoa7hDfSjwcqPJ_33QI-65" value="sego" style="rounded=0;whiteSpace=wrap;html=1;" parent="1" vertex="1">
          <mxGeometry x="1620" y="1280" width="120" height="60" as="geometry" />
        </mxCell>
        <mxCell id="PPoa7hDfSjwcqPJ_33QI-66" value="dani@nada.com" style="rounded=0;whiteSpace=wrap;html=1;" parent="1" vertex="1">
          <mxGeometry x="1735" y="1280" width="120" height="60" as="geometry" />
        </mxCell>
        <mxCell id="PPoa7hDfSjwcqPJ_33QI-67" value="123456" style="rounded=0;whiteSpace=wrap;html=1;" parent="1" vertex="1">
          <mxGeometry x="1855" y="1280" width="120" height="60" as="geometry" />
        </mxCell>
        <mxCell id="PPoa7hDfSjwcqPJ_33QI-68" value="administrador" style="rounded=0;whiteSpace=wrap;html=1;" parent="1" vertex="1">
          <mxGeometry x="1975" y="1280" width="120" height="60" as="geometry" />
        </mxCell>
        <mxCell id="PPoa7hDfSjwcqPJ_33QI-69" value="3" style="rounded=0;whiteSpace=wrap;html=1;" parent="1" vertex="1">
          <mxGeometry x="1500" y="1280" width="120" height="60" as="geometry" />
        </mxCell>
      </root>
    </mxGraphModel>
  </diagram>
</mxfile>
